# xmcd CD database file
#
# Track frame offsets:
#	150
#	18720
#	43002
#	61639
#	83255
#	100667
#	125547
#	140782
#	157850
#	183725
#	197180
#	208127
#	218840
#	238387
#	258532
#
# Disc length: 3763 seconds
#
# Revision: 2
# Processed by: cddbd v1.5.2PL0 Copyright (c) Steve Scherf et al.
# Submitted via: CDex 1.70beta3
#
DISCID=da0eb10f
DTITLE=郷ひろみ - THE GOLDSINGER
DYEAR=1900
DGENRE=ポップ
TTITLE0=GOLDFINGER'99
TTITLE1=哀愁のカサブランカ
TTITLE2=哀しみの黒い瞳
TTITLE3=Wブッキング～LA CHICA DE CUBA～
TTITLE4=シャトレ・アモーナ・ホテル
TTITLE5=ケアレス・ウィスパー～VINGT ANS VERSION～('99 Edit)
TTITLE6=マイアミ気分
TTITLE7=セクシー・ユー (モンローウォーク)
TTITLE8=Goodbye Day～VINGT ANS VERSION～
TTITLE9=バイ・バイ・ベイビー
TTITLE10=天使の詩
TTITLE11=涙のくちづけ
TTITLE12=愛と青春の旅立ち
TTITLE13=BABY,IT'S YOU(It's Only Love)
TTITLE14=僕がどんなに君を好きか、君は知らない
EXTD=
EXTT0=
EXTT1=
EXTT2=
EXTT3=
EXTT4=
EXTT5=
EXTT6=
EXTT7=
EXTT8=
EXTT9=
EXTT10=
EXTT11=
EXTT12=
EXTT13=
EXTT14=
PLAYORDER=
